<?xml version="1.0" encoding="UTF-8"?>
<!-- Uploaded to: ICON Repo, www.svgrepo.com, Generator: ICON Repo Mixer Tools -->
<svg fill="#F5C45E" width="800px" height="800px" version="1.1" viewBox="144 144 512 512" xmlns="http://www.w3.org/2000/svg">
 <g>
  <path d="m209.18 557.4h268.52c2.1719 0 3.9375-1.7617 3.9375-3.9375 0-2.1719-1.7617-3.9375-3.9375-3.9375l-268.52 0.003906c-9.8086 0-17.789-8.0234-17.789-17.879v-234.11c0-9.8086 7.9805-17.789 17.789-17.789h42.469v10.312c0 10.43 8.4766 18.918 18.902 18.918 2.1719 0 3.9375-1.7617 3.9375-3.9375 0-2.1719-1.7617-3.9375-3.9375-3.9375-6.0859 0-11.027-4.9531-11.027-11.043v-10.312h97.652v10.312c0 10.43 8.4844 18.918 18.91 18.918 2.1719 0 3.9375-1.7617 3.9375-3.9375 0-2.1719-1.7617-3.9375-3.9375-3.9375-6.0859 0-11.035-4.9531-11.035-11.043v-10.312h97.637v10.312c0 10.43 8.4922 18.918 18.926 18.918 2.1719 0 3.9375-1.7617 3.9375-3.9375 0-2.1719-1.7617-3.9375-3.9375-3.9375-6.0938 0-11.051-4.9531-11.051-11.043v-10.312h46.184c9.8477 0 17.871 7.9805 17.871 17.789v82.43c0 2.1719 1.7617 3.9375 3.9375 3.9375 2.1719 0 3.9375-1.7617 3.9375-3.9375l-0.011719-82.43c0-14.145-11.547-25.664-25.742-25.664h-46.184v-10.359c0-6.0938 4.9609-11.043 11.051-11.043 6.0859 0 11.035 4.9531 11.035 11.043 0 2.1719 1.7617 3.9375 3.9375 3.9375 2.1719 0 3.9375-1.7617 3.9375-3.9375 0-10.43-8.4844-18.918-18.91-18.918-10.438 0-18.926 8.4844-18.926 18.918v10.359l-97.633 0.003906v-10.359c0-6.0938 4.9531-11.043 11.035-11.043 6.0938 0 11.043 4.9531 11.043 11.043 0 2.1719 1.7617 3.9375 3.9375 3.9375 2.1719 0 3.9375-1.7617 3.9375-3.9375 0-10.43-8.4844-18.918-18.918-18.918-10.43 0-18.91 8.4844-18.91 18.918v10.359h-97.656v-10.359c0-6.0938 4.9453-11.043 11.027-11.043 6.0938 0 11.043 4.9531 11.043 11.043 0 2.1719 1.7617 3.9375 3.9375 3.9375 2.1719 0 3.9375-1.7617 3.9375-3.9375 0-10.43-8.4844-18.918-18.918-18.918-10.422 0-18.902 8.4844-18.902 18.918v10.359h-42.461c-14.145 0-25.664 11.508-25.664 25.664v234.11c0.003906 14.199 11.512 25.746 25.664 25.746z"/>
  <path d="m516.68 339.18c0-2.1719-1.7617-3.9375-3.9375-3.9375h-299.53c-2.1719 0-3.9375 1.7617-3.9375 3.9375 0 2.1719 1.7617 3.9375 3.9375 3.9375h299.53c2.1797 0 3.9336-1.7578 3.9336-3.9375z"/>
  <path d="m281.55 370.86c0-2.1719-1.7617-3.9375-3.9375-3.9375l-42.922 0.003907c-2.1719 0-3.9375 1.7617-3.9375 3.9375v42.926c0 2.1719 1.7617 3.9375 3.9375 3.9375h42.926c2.1719 0 3.9375-1.7617 3.9375-3.9375zm-7.8711 38.992h-35.055v-35.055h35.055z"/>
  <path d="m277.05 446.3h-42.926c-2.1719 0-3.9375 1.7617-3.9375 3.9375v42.926c0 2.1719 1.7617 3.9375 3.9375 3.9375h42.926c2.1719 0 3.9375-1.7617 3.9375-3.9375v-42.926c-0.003906-2.1719-1.7656-3.9375-3.9375-3.9375zm-3.9375 42.926h-35.055v-35.055h35.055z"/>
  <path d="m372.08 370.86c0-2.1719-1.7617-3.9375-3.9375-3.9375l-42.926 0.003907c-2.1719 0-3.9375 1.7617-3.9375 3.9375v42.926c0 2.1719 1.7617 3.9375 3.9375 3.9375h42.926c2.1719 0 3.9375-1.7617 3.9375-3.9375zm-7.875 38.992h-35.055v-35.055h35.055z"/>
  <path d="m414.14 366.93c-2.1719 0-3.9375 1.7617-3.9375 3.9375v42.926c0 2.1719 1.7617 3.9375 3.9375 3.9375h42.926c2.1719 0 3.9375-1.7617 3.9375-3.9375v-42.926c0-2.1719-1.7617-3.9375-3.9375-3.9375zm38.988 42.926h-35.055v-35.055h35.055z"/>
  <path d="m367.57 446.3h-42.926c-2.1719 0-3.9375 1.7617-3.9375 3.9375v42.926c0 2.1719 1.7617 3.9375 3.9375 3.9375h42.926c2.1719 0 3.9375-1.7617 3.9375-3.9375v-42.926c-0.003907-2.1719-1.7656-3.9375-3.9375-3.9375zm-3.9375 42.926h-35.055v-35.055h35.055z"/>
  <path d="m616.29 454.29c-0.46484-1.4258-1.6914-2.4648-3.1797-2.6758l-47.824-6.9492-21.387-43.336c-1.3242-2.6914-5.7383-2.6914-7.0547 0l-21.387 43.336-47.832 6.9492c-1.4805 0.21094-2.7148 1.25-3.1797 2.6758-0.46484 1.4258-0.078124 2.9844 0.99219 4.0312l34.605 33.738-8.1719 47.625c-0.25 1.4805 0.35547 2.9688 1.5664 3.8477 1.2109 0.88281 2.8242 1.0078 4.1406 0.30078l42.777-22.484 42.785 22.484c0.57422 0.30859 1.2031 0.45703 1.8281 0.45703h0.078125c2.1172 0.054688 4.0156-1.7305 4.0156-3.9375 0-0.62109-0.14062-1.1953-0.39453-1.7227l-7.9883-46.57 34.605-33.738c1.0742-1.0508 1.4609-2.6094 1.0039-4.0312zm-42.578 33.582c-0.92969 0.90625-1.3477 2.2031-1.1328 3.4805l7.1719 41.809-37.559-19.734c-1.1484-0.60547-2.5117-0.60547-3.6602 0l-37.551 19.734 7.1719-41.809c0.21875-1.2734-0.20312-2.582-1.1328-3.4805l-30.379-29.613 41.98-6.1016c1.2812-0.17969 2.3945-0.99219 2.9609-2.1484l18.773-38.047 18.773 38.047c0.57422 1.1562 1.6758 1.9688 2.9609 2.1484l41.98 6.1016z"/>
 </g>
</svg>