<?xml version="1.0" encoding="UTF-8" standalone="no"?>
<svg
   width="100%"
   height="100%"
   viewBox="100 100"
   preserveAspectRatio="none"
   version="1.1"
   id="svg1"
   xmlns="http://www.w3.org/2000/svg"
   xmlns:svg="http://www.w3.org/2000/svg">
  <defs
     id="defs1" />
  <path
     d="m -99715.827,-42873.038 c 0,3.815 0.03,8.539 0,12.315 -10e-4,0.05 -10e-4,0.105 -10e-4,0.158 0,1.543 -0.02,3.115 -0.03,5.018 0,0.242 0,0.49 0,0.744 -0.01,2.254 -0.03,5.024 -0.05,8.799 -0.07,12.673 -0.02,22.666 0,25.774 0.03,6.234 0.03,12.884 0.03,21.957 0,0.83 0,1.681 0,2.552 0,0.707 -0.02,1.292 -0.05,1.308 -0.03,0.02 -0.05,-0.544 -0.05,-1.25 0,-0.854 0,-1.686 0,-2.497 0,0 0,0 0,-0.01 0,-9.131 0,-15.636 -0.03,-21.723 -0.01,-3.176 -0.06,-13.414 0,-26.4 0.02,-3.815 0.04,-6.616 0.05,-8.884 0,-0.249 0,-0.491 0,-0.726 0,0 0,-0.01 0,-0.02 0.01,-1.914 0.02,-3.42 0.03,-4.897 0,-0.03 0,-0.06 0,-0.09 0.02,-3.818 -0.01,-8.451 0,-12.152 0,-0.707 0.02,-1.274 0.05,-1.267 0.03,0 0.05,0.587 0.05,1.293 z m 98.892,55.75 c -0.04,-3.684 -0.03,-8.585 -0.02,-12.913 0.02,-4.358 0.05,-8.302 0.07,-10.158 0.02,-1.815 0.02,-3.831 0.03,-6.236 10e-4,-0.551 0,-1.124 0,-1.716 0,-1.954 0,-4.129 0.01,-6.516 0.03,-8.769 0.03,-14.486 0.03,-18.569 0,-0.84 0,-1.621 0,-2.353 0,-10e-4 0,0 0,0 0,-2.76 0,-4.82 0,-6.714 0,-0.783 0.01,-1.533 0.01,-2.264 0.02,-1.069 -0.619,-2.005 -1.319,-1.988 -1.124,-0.02 -2.231,-0.04 -3.452,-0.07 -3.074,-0.07 -7.452,-0.07 -10.301,-0.01 -0.156,0 -0.316,0 -0.478,0 -2.065,0.04 -4.609,0.08 -8.422,0.117 -3.168,0.03 -5.929,0.03 -8.373,0.02 -0.7,0 -1.369,0 -2.01,0 -1.62,0 -3.069,-0.01 -4.435,0 -8.467,0.02 -13.35,0 -16.419,-0.05 -2.361,-0.03 -3.679,-0.07 -4.63,-0.103 -0.288,0 -0.542,-0.02 -0.781,-0.02 -2.131,-0.06 -4.088,-0.08 -6.442,-0.112 -0.522,0 -1.066,-0.01 -1.634,-0.02 -1.899,-0.03 -3.314,-0.02 -4.424,-0.01 -0.486,0 -0.913,0.01 -1.316,0.02 0,0 -0.01,0 -0.02,0 -0.06,0 -0.112,0 -0.167,0 -0.04,0 -0.08,0 -0.125,0 -0.02,0 -0.03,0 -0.04,0 0,0 -0.02,0 -0.02,0 0,0 0,0 0,0 -0.08,0 -0.147,0 -0.161,0 -0.02,0 -0.05,0 -0.06,0 -0.06,0 -0.134,0 -0.184,0 -0.128,0 -0.351,0 -0.696,0 -0.3,0 -0.588,0 -0.948,0.01 -0.02,0 -0.05,0 -0.07,0 -0.352,0 -0.764,0.01 -1.28,0.01 -0.47,0 -0.902,-0.03 -0.965,-0.07 -0.06,-0.04 0.267,-0.08 0.737,-0.08 0.487,0 0.872,-0.01 1.224,-0.01 0.02,0 0.04,0 0.07,0 0.366,0 0.714,0 1.088,-0.01 0.126,0 0.255,0 0.376,0 0.217,0 0.464,0 0.76,0 0.06,0 0.121,0 0.184,0 0.402,0 0.87,-0.01 1.398,-0.02 1.236,-0.01 2.802,-0.02 4.869,0.01 0.542,0 1.068,0.01 1.581,0.02 2.363,0.03 4.466,0.06 6.728,0.118 0.31,0 0.608,0.02 0.927,0.03 0.943,0.03 2.07,0.07 4.252,0.1 2.924,0.04 7.69,0.07 16.11,0.05 1.433,0 2.979,0 4.626,0 0.629,0 1.273,0 1.931,0 2.406,0 5.08,0.01 8.139,-0.02 3.728,-0.03 6.202,-0.08 8.259,-0.115 0.07,0 0.142,0 0.213,0 0.09,0 0.175,0 0.262,0 3.036,-0.06 7.694,-0.07 11.09,0.02 1.067,0.03 2.042,0.04 3.033,0.06 0.753,-0.02 1.443,0.986 1.423,2.144 0,0.832 -0.01,1.692 -0.02,2.605 -0.01,1.649 0,3.411 0,6.116 0,0.76 0,1.594 0,2.521 0,4.156 0,9.96 -0.03,18.828 0,2.311 -0.01,4.391 -0.01,6.335 0,0.604 0,1.196 0,1.776 0,2.418 -0.01,4.667 -0.03,6.764 -0.02,1.724 -0.05,5.541 -0.06,9.78 -0.02,4.269 -0.02,8.801 0.01,12.04 0,0.336 0,0.676 0.01,1.015 0.03,2.922 0.06,5.9 0.109,8.299 0.143,4.875 0.196,11.544 0.21,18.576 0.02,1.272 -0.745,2.43 -1.608,2.402 -5.271,0.01 -10.727,-0.04 -15.059,-0.06 -0.113,0 -0.226,0 -0.34,0 -9.943,-0.03 -17.17,-0.03 -19.633,-0.03 -0.115,0 -0.22,0 -0.314,0 -0.08,0 -0.16,0 -0.226,0 -1.004,0 -1.892,0 -2.822,0.01 -0.05,0 -0.102,0 -0.152,0 -0.983,0 -2.015,0.01 -3.235,0.01 -4.534,0 -8.23,0 -11.429,0.01 -0.592,0 -1.167,0 -1.729,0 0,0 0,0 0,0 -2.463,0 -4.648,0.01 -6.722,0.01 -3.781,10e-4 -6.336,0.01 -8.322,0.02 -0.623,0 -1.198,0 -1.739,0.01 -1.172,0 -2.195,0.01 -3.251,0.01 -1.985,0 -3.811,0.01 -5.611,0.03 -0.16,0 -0.32,0 -0.48,0 -1.951,0.01 -3.883,0.02 -5.925,0.02 -0.474,0 -0.867,-0.03 -0.877,-0.08 0,-0.04 0.368,-0.08 0.841,-0.08 1.984,0 3.868,-0.01 5.818,-0.02 0.161,0 0.323,0 0.485,0 1.795,-0.01 3.655,-0.02 5.676,-0.03 1.018,0 1.984,0 3.133,-0.01 0.548,0 1.138,0 1.795,-0.01 2.017,-0.01 4.605,-0.02 8.422,-0.02 2.049,0 4.206,0 6.668,-0.01 0.565,0 1.146,0 1.745,0 3.207,0 6.922,-0.01 11.482,-0.01 1.152,0 2.13,0 3.108,-0.01 0.06,0 0.11,0 0.165,0 0.922,0 1.86,-0.01 2.92,-0.01 0.141,0 0.322,0 0.54,0 2.467,0 9.723,0 19.703,0.03 0.03,0 0.06,0 0.09,0 6.687,0.02 10.46,0.04 13.301,0 0.713,0 1.368,-0.02 1.976,-0.02 0.833,0.01 1.47,-1.102 1.446,-2.167 0,-1.072 0,-2.031 0,-2.908 0,-0.391 0,-0.761 0,-1.114 0,-1.523 0,-2.728 -0.01,-3.931 -0.02,-3.641 -0.06,-6.251 -0.122,-9.41 -0.06,-2.678 -0.09,-5.958 -0.118,-8.832 0,0 0,0 0,-0.01 0,-0.341 0,-0.677 -0.01,-1.005 z m -84.871,-69.546 c -0.474,-10e-4 -0.854,-0.04 -0.85,-0.08 0,-0.04 0.393,-0.08 0.867,-0.07 1.13,0 2.259,0 3.388,0 0.474,0 0.854,0.04 0.85,0.08 0,0.04 -0.393,0.08 -0.867,0.08 -1.129,0 -2.259,0 -3.388,0 z m 84.36,72.493 c 0,-0.689 0.01,-1.376 0.04,-1.533 0.03,-0.155 0.06,0.277 0.06,0.966 0,0.364 0,0.963 0.02,1.769 0.04,3.869 0.116,12.521 0.178,23.063 0.02,0.754 -0.437,1.464 -0.962,1.452 -3.155,0.04 -6.527,0.07 -9.957,0.09 -0.992,0 -1.881,0.01 -2.728,0.02 -3.624,0.02 -6.533,0.131 -13.463,0.127 -23.365,-0.01 -46.714,-0.143 -70.049,-0.124 -0.558,0.02 -1.062,-0.729 -1.049,-1.563 0,-7.922 -0.01,-15.843 -0.03,-23.763 -0.03,-12.527 -0.03,-25.015 -0.03,-37.552 0,-9.934 0.05,-27.737 0.06,-33.34 0,-0.35 0.08,-0.653 0.18,-0.873 0.343,-0.744 0.897,-0.647 0.867,-0.608 0,0.04 -0.5,0.04 -0.792,0.717 -0.09,0.195 -0.152,0.459 -0.153,0.764 0,5.547 -0.06,23.322 -0.06,33.231 0,12.513 0,24.975 0.03,37.478 0.02,7.978 0.03,15.961 0.04,23.946 -0.01,0.743 0.439,1.41 0.935,1.39 23.345,-0.06 46.728,-0.06 70.087,-0.04 6.863,0 9.657,0.08 13.267,0.06 0.849,0 1.743,-0.01 2.745,-0.02 3.483,-0.02 6.906,-0.05 10.098,-0.09 0.47,0.01 0.874,-0.625 0.858,-1.297 -0.06,-10.198 -0.138,-18.565 -0.174,-22.424 0,-0.831 -0.01,-1.456 -0.02,-1.841 z m 0.04,-32.863 c 0,-7.89 0,-19.104 0.02,-28.905 0,-3.06 0,-5.982 0.01,-8.622 0,-0.608 -0.359,-1.121 -0.739,-1.105 -0.494,-10e-4 -0.969,0 -1.423,0 -3.697,0 -6.024,-0.04 -8.332,-0.08 -0.02,0 -0.05,0 -0.07,0 -2.306,-0.04 -4.615,-0.07 -8.369,-0.08 -3.786,0 -9.024,0.02 -14.308,0.04 0,0 0,0 -0.01,0 -5.256,0.02 -10.587,0.128 -14.439,0.122 -13.425,-0.02 -21.703,-0.126 -25.888,-0.208 -7.322,-0.145 -15.625,0.02 -23.105,-0.166 -0.825,-0.04 0.567,-0.157 2.087,-0.123 0.06,0 0.11,0 0.165,0 0.523,0 0.981,0.02 1.625,0.02 0.934,0 1.629,0 2.263,0 1.664,0 13.217,0.03 17.304,0.109 3.972,0.08 12.076,-0 25.587,0.02 3.781,0 9.005,0.09 14.289,0.06 0.01,0 0.03,0 0.04,0 5.246,-0.02 10.535,-0.05 14.384,-0.04 3.89,0 6.304,0.04 8.641,0.08 0.02,0 0.04,0 0.07,0 2.286,0.04 4.507,0.07 8.067,0.08 0.457,0 0.933,0 1.428,0 0.434,-0.02 0.852,0.567 0.842,1.258 0,2.696 0,5.67 -0.01,8.775 -0.01,9.759 -0.03,20.817 -0.02,28.639 0,0.706 -0.02,1.304 -0.05,1.335 -0.03,0.03 -0.05,-0.517 -0.05,-1.222 z m -0.64,-0.163 c -0.06,-12.448 -0.08,-24.936 -0.06,-37.364 0,0 0,-0.01 0,-0.01 -6.05,-0.02 -12.077,-0.07 -18.056,-0.148 -3.827,0 -9.168,-0.02 -14.501,-0.03 -0.06,0 -0.121,0 -0.181,0 -5.275,-0.01 -10.528,-0.02 -14.299,-0.03 -13.424,-0.02 -21.733,-0.05 -25.919,-0.131 -3.902,-0.08 -4.986,-0.08 -6.592,-0.08 -0.04,-10e-4 -0.09,-10e-4 -0.131,-10e-4 0,0 0,10e-4 0,10e-4 -0.06,0 -0.101,0 -0.125,0 -0.05,0 -0.09,0 -0.103,0 -0.03,0 -0.06,0 -0.07,0 -0.04,0 -0.09,0 -0.12,0 -0.286,0 -1.182,0 -1.892,-0.01 -0.727,0 -1.245,-0.01 -1.792,-0.02 -0.05,-10e-4 -0.111,0 -0.166,0 -0.493,0 -1.029,-0.02 -1.801,-0.03 -0.47,0 -0.805,-0.04 -0.747,-0.09 0.06,-0.04 0.486,-0.07 0.956,-0.07 0.813,0.01 1.383,0.02 1.878,0.03 0.05,10e-4 0.11,0 0.165,0 0.523,0 0.982,0.02 1.626,0.02 0.934,0 1.628,0 2.262,0 1.663,0 2.915,0 7.002,0.08 3.972,0.08 12.065,0.106 25.576,0.127 3.778,0 9.036,0.02 14.308,0.03 0.06,0 0.123,0 0.185,0 5.337,0.01 10.669,0.02 14.488,0.03 6.055,0 12.06,0 18.06,0 0.113,0 0.218,0.15 0.214,0.319 0,12.358 0,24.714 -0.04,37.249 0,4.103 0,7.852 0,11.327 0,10.224 0,18.071 0.07,25.551 0.01,1.64 0.02,5.938 0.04,12.15 0,1.821 0,3.817 0.01,5.976 0,0.779 0,1.58 0,2.402 0,0.238 -0.139,0.471 -0.309,0.467 -2.853,0.01 -6.04,0.03 -9.514,0.05 -0.992,0 -1.881,0.01 -2.728,0.02 -3.624,0.02 -6.484,0.04 -13.415,0.04 -8.527,0 -22.816,-0.04 -30.457,-0.07 -3.827,-0.01 -5.988,-0.03 -7.516,-0.04 -0.426,0 -0.8,0 -1.144,0 -0.897,0 -1.593,-0.01 -2.507,-0.02 -6.575,-0.03 -11.179,0 -18.721,0.03 -0.472,0 -0.884,-0.03 -0.92,-0.07 -0.04,-0.04 0.319,-0.08 0.792,-0.08 7.553,-0.04 12.227,-0.06 18.892,-0.03 0.953,0 1.699,0.01 2.612,0.02 0.338,0 0.7,0 1.104,0 1.503,0.01 3.64,0.02 7.448,0.04 7.627,0.03 21.895,0.07 30.396,0.07 6.863,0 9.668,-0.01 13.278,-0.04 0.849,0 1.743,-0.01 2.744,-0.02 3.53,-0.02 6.767,-0.04 9.656,-0.05 0.114,0 0.211,-0.155 0.206,-0.314 0,-0.758 0,-1.497 0,-2.219 0,-2.155 0,-4.148 -0.01,-5.961 -0.01,-6.337 -0.03,-10.376 -0.04,-11.781 -0.06,-7.742 -0.07,-15.929 -0.07,-26.249 0,-3.436 0,-7.11 0,-11.081 z m -96.556,34.006 c 0,0.705 -0.02,1.316 -0.05,1.367 -0.03,0.05 -0.05,-0.481 -0.05,-1.186 0,-3.723 -0.01,-6.4 -0.02,-8.492 0,-3.873 -0.01,-5.745 -0.01,-8.548 0,-7.236 0,-14.224 0,-20.51 0,-10.449 0,-18.965 0,-23.472 0,-0.706 0.02,-1.274 0.05,-1.266 0.03,0 0.05,0.586 0.05,1.292 0,4.475 0,12.927 0,23.337 0,6.294 0,13.304 0,20.586 0,2.719 0,4.486 0.01,8.272 0,2.091 0.01,4.798 0.02,8.62 z"
     fill="none"
     stroke="#f5c45e"
     stroke-width="0.455248"
     stroke-dasharray="100"
     stroke-dashoffset="0"
     id="path1">
    <animate
       attributeName="stroke-dashoffset"
       from="0"
       to="-200"
       dur="10s"
       repeatCount="indefinite"
       easing="linear" />
  </path>
</svg>
