<svg width="100%" height="100%" viewBox="0 0 575 385" preserveAspectRatio="none" xmlns="http://www.w3.org/2000/svg">
  <path d="M1.28213 55.0874C1.25587 69.8013 1.42446 88.0172 1.32072 102.575C1.31926 102.779 1.31781 102.983 1.31635 103.187C1.27395 109.136 1.21272 115.199 1.1387 122.534C1.12927 123.468 1.1194 124.425 1.10957 125.403C1.02215 134.098 0.917347 144.779 0.800855 159.333C0.409693 208.203 0.669649 246.736 0.750616 258.722C0.913005 282.76 0.916439 308.403 0.920992 343.392C0.921407 346.592 0.921161 349.871 0.92172 353.233C0.922173 355.957 0.790685 358.212 0.627567 358.274C0.464378 358.335 0.331682 356.179 0.331229 353.454C0.330681 350.162 0.330189 346.953 0.329773 343.827C0.329773 343.812 0.329773 343.798 0.329773 343.784C0.32509 308.575 0.321598 283.489 0.163037 260.018C0.080305 247.771 -0.185354 208.292 0.215461 158.215C0.333191 143.506 0.438404 132.705 0.52636 123.958C0.535989 123 0.545602 122.067 0.554756 121.159C0.554999 121.138 0.555242 121.117 0.555485 121.095C0.629971 113.712 0.688917 107.905 0.729501 102.211C0.730229 102.09 0.730957 101.969 0.731685 101.848C0.836603 87.127 0.666169 69.2586 0.69164 54.9877C0.696579 52.2635 0.832918 50.0752 0.995987 50.103C1.15895 50.1324 1.28688 52.3646 1.28213 55.0874ZM569.779 270.066C569.563 255.859 569.586 236.96 569.683 220.272C569.78 203.468 569.954 188.259 570.061 181.102C570.166 174.105 570.2 166.331 570.221 157.055C570.226 154.929 570.23 152.722 570.234 150.44C570.248 142.903 570.264 134.517 570.31 125.312C570.482 91.4973 570.489 69.4519 570.474 53.7075C570.47 50.469 570.466 47.4557 570.462 44.6359C570.462 44.6311 570.462 44.6264 570.462 44.6216C570.447 33.9772 570.435 26.0351 570.503 18.7312C570.53 15.7112 570.558 12.82 570.585 10C570.695 5.87788 567.027 2.26758 563 2.33275C556.542 2.26101 550.179 2.17777 543.157 2.06411C525.487 1.77821 500.32 1.81213 483.942 2.00878C483.043 2.01957 482.124 2.03103 481.193 2.04227C469.321 2.1857 454.701 2.36215 432.781 2.49369C414.568 2.60299 398.695 2.59439 384.646 2.56359C380.619 2.55477 376.777 2.5438 373.089 2.53374C363.779 2.50834 355.446 2.48548 347.597 2.49879C298.921 2.58134 270.85 2.47454 253.207 2.31385C239.638 2.19026 232.058 2.0312 226.59 1.91631C224.938 1.88159 223.478 1.85043 222.104 1.82602C209.851 1.60835 198.602 1.51049 185.07 1.3928C182.067 1.36668 178.942 1.3394 175.678 1.3098C164.76 1.21079 156.623 1.22792 150.243 1.26975C147.453 1.28806 144.997 1.31061 142.681 1.33237C142.639 1.33286 142.596 1.33334 142.553 1.33383C142.23 1.33686 141.91 1.3396 141.592 1.34256C141.352 1.3448 141.113 1.34765 140.873 1.34984C140.778 1.35279 140.694 1.35471 140.631 1.3564C140.581 1.35773 140.542 1.35869 140.517 1.35931C140.512 1.35955 140.507 1.3598 140.502 1.36004C140.048 1.37137 139.657 1.37584 139.577 1.37678C139.437 1.37845 139.313 1.37918 139.249 1.3797C138.914 1.38242 138.482 1.38398 138.195 1.38479C137.457 1.3869 136.176 1.38938 134.194 1.39207C132.468 1.40059 130.812 1.41511 128.739 1.43358C128.609 1.43479 128.478 1.436 128.348 1.43722C126.326 1.45525 123.96 1.47593 120.992 1.49619C118.291 1.51463 115.807 1.39835 115.445 1.23626C115.084 1.07416 116.981 0.927846 119.682 0.909343C122.479 0.890246 124.694 0.870596 126.717 0.852551C126.845 0.851337 126.973 0.850124 127.101 0.84891C129.21 0.83012 131.208 0.812537 133.36 0.802311C134.081 0.798891 134.824 0.796246 135.518 0.794302C136.767 0.786999 138.189 0.774462 139.89 0.758625C140.231 0.755446 140.584 0.752545 140.944 0.74916C143.255 0.727421 145.947 0.702078 148.983 0.682175C156.089 0.635584 165.092 0.618099 176.974 0.725861C180.09 0.754119 183.11 0.78035 186.06 0.805952C199.645 0.923881 211.733 1.0285 224.739 1.25956C226.523 1.29126 228.235 1.32749 230.065 1.36586C235.489 1.4796 241.966 1.61566 254.51 1.72991C271.317 1.88297 298.72 1.99037 347.12 1.9083C355.359 1.89433 364.247 1.91887 373.715 1.9447C377.33 1.95457 381.035 1.96408 384.816 1.97237C398.647 2.00269 414.02 2.01091 431.606 1.90539C453.037 1.77678 467.258 1.60549 479.079 1.4627C479.487 1.4576 479.895 1.45251 480.303 1.44741C480.81 1.44129 481.314 1.4352 481.813 1.42921C499.265 1.21962 526.044 1.17811 545.563 1.49401C551.696 1.59325 557.305 1.66839 563 1.73363C567.33 1.66232 571.296 5.53811 571.182 10C571.15 13.2095 571.119 16.5263 571.087 20.0485C571.028 26.4068 571.038 33.2009 571.052 43.6318C571.057 46.5599 571.061 49.7792 571.064 53.3514C571.08 69.3779 571.073 91.7596 570.899 125.953C570.854 134.868 570.839 142.889 570.825 150.383C570.821 152.711 570.816 154.996 570.811 157.233C570.79 166.554 570.756 175.229 570.635 183.316C570.536 189.964 570.365 204.682 570.271 221.027C570.176 237.488 570.162 254.965 570.352 267.453C570.372 268.751 570.391 270.061 570.411 271.369C570.58 282.635 570.753 294.121 571.041 303.369C571.86 322.169 572.166 347.887 572.246 375C572.372 379.905 567.961 384.373 563 384.263C532.7 384.307 501.337 384.105 476.434 384.051C475.783 384.049 475.133 384.048 474.482 384.046C417.319 383.921 375.775 383.937 361.614 383.942C360.954 383.942 360.353 383.943 359.813 383.943C359.33 383.943 358.894 383.943 358.51 383.944C352.741 383.945 347.637 383.966 342.289 383.988C341.997 383.989 341.705 383.99 341.413 383.992C335.762 384.015 329.831 384.037 322.821 384.035C296.755 384.028 275.506 384.055 257.12 384.083C253.716 384.089 250.406 384.093 247.18 384.099C247.17 384.099 247.161 384.099 247.151 384.099C232.991 384.122 220.429 384.142 208.508 384.142C186.769 384.143 172.086 384.18 160.665 384.22C157.083 384.233 153.782 384.246 150.667 384.258C143.932 384.285 138.05 384.308 131.983 384.316C120.572 384.332 110.071 384.372 99.7267 384.412C98.8047 384.415 97.8839 384.418 96.9639 384.422C85.7506 384.464 74.646 384.504 62.9061 384.505C60.1813 384.505 57.9222 384.373 57.8648 384.209C57.8103 384.046 59.9765 383.914 62.6997 383.914C74.103 383.913 84.9347 383.875 96.145 383.832C97.0697 383.829 97.9987 383.825 98.9292 383.821C109.248 383.782 119.941 383.742 131.563 383.726C137.412 383.718 142.969 383.696 149.571 383.67C152.721 383.657 156.114 383.644 159.888 383.63C171.483 383.59 186.36 383.551 208.308 383.551C220.086 383.551 232.487 383.531 246.638 383.508C249.885 383.503 253.226 383.498 256.671 383.492C275.103 383.464 296.462 383.437 322.672 383.444C329.295 383.446 334.918 383.425 340.544 383.402C340.86 383.401 341.176 383.399 341.492 383.398C346.793 383.376 352.181 383.354 358.275 383.352C359.089 383.352 360.128 383.352 361.379 383.352C375.561 383.346 417.273 383.33 474.646 383.456C474.824 383.456 475.002 383.457 475.18 383.457C513.623 383.542 535.311 383.589 551.641 383.443C555.74 383.407 559.51 383.379 563 383.357C567.793 383.404 571.455 379.106 571.317 375C571.3 370.867 571.291 367.169 571.285 363.787C571.282 362.28 571.279 360.853 571.277 359.493C571.269 353.618 571.262 348.974 571.221 344.334C571.097 330.295 570.894 320.228 570.515 308.047C570.194 297.721 570.004 285.071 569.838 273.99C569.838 273.973 569.837 273.956 569.837 273.94C569.817 272.625 569.798 271.33 569.779 270.066ZM81.8858 1.88864C79.1626 1.88377 76.9765 1.74797 77.0011 1.58502C77.0289 1.42194 79.261 1.29334 81.9855 1.29815C88.4771 1.3098 94.9688 1.32145 101.46 1.3331C104.183 1.33801 106.37 1.47378 106.345 1.63672C106.317 1.79978 104.085 1.92837 101.361 1.92359C94.8691 1.91194 88.3773 1.90029 81.8858 1.88864ZM566.84 281.431C566.807 278.773 566.91 276.125 567.07 275.52C567.229 274.92 567.385 276.589 567.418 279.245C567.436 280.649 567.468 282.959 567.51 286.066C567.715 300.983 568.173 334.347 568.532 375C568.631 377.908 566.022 380.644 563 380.599C544.865 380.749 525.477 380.877 505.763 380.951C500.058 380.973 494.947 380.994 490.077 381.014C469.246 381.102 452.524 381.521 412.683 381.504C278.37 381.447 144.141 380.953 9.99999 381.025C6.78964 381.103 3.89522 378.213 3.96999 375C3.94854 344.451 3.89676 313.906 3.80282 283.366C3.65423 235.06 3.63201 186.905 3.64191 138.562C3.64977 100.253 3.92397 31.6059 3.97762 10C3.97846 8.64868 4.43622 7.47896 5.01409 6.63287C6.98501 3.76419 10.1739 4.13907 9.9997 4.28847C10.0463 4.44822 7.12349 4.44439 5.44352 7.05386C4.95305 7.80413 4.56961 8.82322 4.56835 10C4.51541 31.387 4.24095 99.9294 4.23313 138.142C4.22326 186.392 4.24502 234.448 4.39332 282.661C4.48795 313.426 4.56404 344.207 4.62477 375C4.56122 377.864 7.14482 380.434 9.99999 380.36C144.2 380.107 278.62 380.14 412.904 380.197C452.358 380.214 468.417 380.512 489.172 380.425C494.054 380.405 499.193 380.383 504.951 380.361C524.975 380.286 544.652 380.155 563 380.001C565.7 380.038 568.025 377.591 567.933 375C567.582 335.675 567.139 303.409 566.935 288.53C566.891 285.324 566.858 282.916 566.84 281.431ZM567.086 154.706C567.042 124.284 567.121 81.0389 567.191 43.2473C567.213 31.448 567.234 20.1801 567.25 10C567.303 7.6557 565.186 5.67765 563 5.73836C560.16 5.73453 557.428 5.73126 554.82 5.72866C533.567 5.70746 520.188 5.56611 506.92 5.42577C506.778 5.42431 506.635 5.42285 506.493 5.4214C493.234 5.28117 479.964 5.14314 458.379 5.12142C436.617 5.09952 406.504 5.19561 376.129 5.29252C376.106 5.29252 376.082 5.29252 376.058 5.29252C345.846 5.38893 315.2 5.78566 293.054 5.76288C215.88 5.6835 168.294 5.27764 144.234 4.95905C102.146 4.40175 54.4103 5.02683 11.4135 4.32196C6.67146 4.16586 14.6698 3.71645 23.4117 3.84578C23.7274 3.84942 24.043 3.85306 24.3587 3.8567C27.3654 3.89059 29.996 3.91811 33.7009 3.94043C39.0692 3.9587 43.0642 3.95992 46.7102 3.96082C56.2765 3.96319 122.687 4.07052 146.185 4.38167C169.019 4.68397 215.606 4.37605 293.274 4.45593C315.01 4.47829 345.043 4.79895 375.417 4.70203C375.5 4.70179 375.583 4.70155 375.666 4.7013C405.819 4.6051 436.225 4.50794 458.351 4.5302C480.715 4.55271 494.591 4.69757 508.024 4.83964C508.154 4.8411 508.285 4.84255 508.415 4.84401C521.56 4.98305 534.324 5.11775 554.792 5.13816C557.416 5.14078 560.157 5.14402 563 5.14778C565.495 5.0795 567.9 7.33444 567.841 10C567.825 20.3966 567.804 31.8644 567.782 43.8384C567.712 81.468 567.633 124.11 567.677 154.271C567.681 156.993 567.552 159.299 567.389 159.42C567.226 159.538 567.09 157.427 567.086 154.706ZM563.406 154.079C563.038 106.076 562.935 57.9236 563.038 10C563.05 9.98584 563.025 9.94421 563 9.94384C528.222 9.85312 493.575 9.65554 459.205 9.37354C437.205 9.35139 406.504 9.30553 375.845 9.25923C375.498 9.2585 375.151 9.25777 374.805 9.25704C344.477 9.21124 314.283 9.16576 292.605 9.14346C215.432 9.06408 167.668 8.95744 143.607 8.63888C121.172 8.34181 114.944 8.34095 105.711 8.3389C105.46 8.33866 105.208 8.33842 104.957 8.33818C104.94 8.33866 104.923 8.33915 104.907 8.33963C104.59 8.34723 104.324 8.35158 104.187 8.35347C103.909 8.35732 103.681 8.35875 103.596 8.35929C103.4 8.36055 103.235 8.36064 103.176 8.36075C102.937 8.36117 102.662 8.36106 102.486 8.36075C100.842 8.35781 95.6924 8.33993 91.6125 8.31561C87.4317 8.29067 84.4513 8.25855 81.3091 8.22314C80.991 8.2195 80.6729 8.21586 80.3549 8.21221C77.5225 8.18013 74.4405 8.14525 70.0016 8.10737C67.2973 8.08424 65.3755 7.93469 65.7079 7.77317C66.0423 7.61177 68.5019 7.4997 71.205 7.5227C75.8749 7.56255 79.1544 7.59968 81.9998 7.63192C82.3154 7.63556 82.6311 7.6392 82.9468 7.64284C85.9542 7.67673 88.5896 7.70424 92.2961 7.72657C97.6631 7.74483 101.653 7.74606 105.298 7.74696C114.857 7.74932 122.055 7.75111 145.551 8.06223C168.385 8.36458 214.905 8.47308 292.577 8.55297C314.295 8.57531 344.524 8.62079 374.826 8.66655C375.182 8.66704 375.538 8.66752 375.894 8.66801C406.571 8.71433 437.227 8.76095 459.177 8.78305C493.988 8.81808 528.507 8.7899 563 8.77313C563.649 8.751 564.25 9.34847 564.23 10C564.251 57.6563 564.238 105.301 563.996 153.638C564.02 169.458 564.029 183.918 564.037 197.315C564.062 236.742 564.081 266.999 564.44 295.843C564.518 302.166 564.585 318.742 564.668 342.696C564.693 349.716 564.718 357.416 564.746 365.738C564.756 368.744 564.767 371.832 564.777 375C564.816 375.921 563.98 376.819 563 376.804C546.603 376.86 528.28 376.923 508.312 376.999C502.607 377.021 497.496 377.042 492.626 377.062C471.795 377.15 455.353 377.219 415.51 377.202C366.488 377.181 284.35 377.034 240.422 376.922C218.421 376.865 206.001 376.813 197.214 376.77C194.768 376.757 192.616 376.746 190.642 376.735C185.485 376.708 181.479 376.687 176.23 376.673C138.43 376.573 111.966 376.642 68.6097 376.786C65.8929 376.795 63.524 376.67 63.3191 376.507C63.115 376.345 65.1525 376.205 67.8692 376.196C111.289 376.052 138.157 375.981 176.472 376.083C181.953 376.098 186.241 376.12 191.49 376.148C193.435 376.158 195.514 376.169 197.834 376.181C206.475 376.223 218.764 376.275 240.65 376.331C284.499 376.444 366.517 376.59 415.389 376.611C454.842 376.628 470.966 376.56 491.721 376.473C496.601 376.453 501.738 376.431 507.493 376.409C527.784 376.332 546.394 376.268 563 376.211C563.657 376.22 564.215 375.612 564.185 375C564.175 372.078 564.165 369.225 564.156 366.443C564.128 358.132 564.102 350.449 564.078 343.458C563.993 319.021 563.928 303.446 563.861 298.029C563.49 268.173 563.47 236.602 563.445 196.81C563.437 183.559 563.428 169.393 563.406 154.079ZM8.34546 285.21C8.35378 287.928 8.22809 290.286 8.06514 290.479C7.90222 290.671 7.76333 288.626 7.75497 285.908C7.7108 271.551 7.67437 261.229 7.64575 253.16C7.59278 238.226 7.56695 231.009 7.57148 220.199C7.58318 192.295 7.58908 165.351 7.59406 141.111C7.60232 100.818 7.60891 67.9795 7.63993 50.6015C7.64482 47.8765 7.78118 45.6889 7.94427 45.7168C8.10721 45.7471 8.23521 47.9783 8.23042 50.7012C8.19962 67.957 8.19276 100.549 8.18455 140.691C8.17958 164.96 8.17448 191.992 8.1627 220.071C8.15831 230.555 8.18221 237.369 8.23406 251.971C8.26268 260.032 8.30012 270.47 8.34546 285.21Z"
        fill="none"
        stroke="#F5C45E"
        stroke-width="2"
        stroke-dasharray="573"
        stroke-dashoffset="0">
    <animate attributeName="stroke-dashoffset"
             from="0" to="-1146"
             dur="10s"
             repeatCount="indefinite"
             easing="linear" />
  </path>
</svg>
